<?xml version="1.0" encoding="utf-8"?>
<svg version="1.1" xmlns="http://www.w3.org/2000/svg" x="0" y="0" viewBox="-122 50.4 354.4 501.6" xml:space="preserve">
  <style>
    .st0{fill:#542a41}.st1{fill:#fff}
  </style>
  <path class="st0" d="M-49.9 210.4h211.8v127.7H-49.9z"/>
  <path class="st0" d="M-22.5 182.4V338h-2.7c-1.6 0-3.1-.1-4.6-.5V182.4h7.3zM-13.4 182.4h7.3v155.7h-7.3zM3 182.4h7.3v155.7H3zM19.5 182.4h7.3v155.7h-7.3zM35.9 182.4h7.3v155.7h-7.3zM52.3 182.4h7.3v155.7h-7.3zM68.8 182.4h7.3v155.7h-7.3zM85.2 182.4h7.3v155.7h-7.3zM101.6 182.4h7.3v155.7h-7.3zM118.1 182.4h7.3v155.7h-7.3zM141.8 182.4v155.2c-1.5.3-3.1.5-4.6.5h-2.6V182.4h7.2zM158.2 338V187.9c-3 2-5.4 4.6-7.3 7.6V338h7.3zM-46.3 195.2h7.3v142.9h-7.3z"/>
  <path class="st0" d="M-49.9 215.7h211.8V340H-49.9z"/>
  <circle class="st0" cx="-30.3" cy="143.9" r="91.7"/>
  <circle class="st0" cx="140.8" cy="143.9" r="91.7"/>
  <circle class="st0" cx="53.9" cy="142" r="91.7"/>
  <circle class="st0" cx="99.5" cy="385.2" r="11.4"/>
  <circle class="st0" cx="12.6" cy="385.2" r="11.4"/>
  <path class="st0" d="M2.3 530.7s28.1 17.9 39 19.8c11.1 1.9 21.5 1.8 30 0s38.4-17.3 42.6-24.2c5.6-9.4-.4-39.8-12.8-57.9S77.7 441.5 68.2 442s-9 2.6-13.9 2-6.6-2.5-13.9-2-24.5 3.9-39.6 40.8 1.5 47.9 1.5 47.9z"/>
  <path class="st1" d="M13.7 487.6c-.2 1.3-.1 2.5.1 3.8.6 4 1.9 12.6 13.7 17.1 15.7 6 17.7 1.4 19.3 0s8.8-9.4 19.5-1.7c9.8 7.1 15.1 4.3 18.3 3 6.9-2.5 11.6-8.9 12.1-16.1 0 0 1.4-10.8-6-12.9-6.4-1.9-27.2-6.4-31.2-8.5-3.6-1.9-5.4-.4-9.7 1.3-4 1.6-25.6 5.5-32.2 8.9-2.1.9-3.6 2.8-3.9 5.1z"/>
</svg>