<?xml version="1.0" encoding="utf-8"?>
<!-- Generator: Adobe Illustrator 19.0.0, SVG Export Plug-In . SVG Version: 6.00 Build 0)  -->
<svg version="1.1" id="Слой_1" xmlns="http://www.w3.org/2000/svg" xmlns:xlink="http://www.w3.org/1999/xlink" x="0px" y="0px"
	 viewBox="-122 50.4 354.4 501.6" style="enable-background:new -122 50.4 354.4 501.6;" xml:space="preserve">
<style type="text/css">
	.st0{fill:#542A41;}
	.st1{fill:#FFFFFF;}
</style>
<title>логотип</title>
<rect x="-49.9" y="210.4" class="st0" width="211.8" height="127.7"/>
<path class="st0" d="M-22.5,182.4V338h-2.7c-1.6,0-3.1-0.1-4.6-0.5V182.4H-22.5z"/>
<rect x="-13.4" y="182.4" class="st0" width="7.3" height="155.7"/>
<rect x="3" y="182.4" class="st0" width="7.3" height="155.7"/>
<rect x="19.5" y="182.4" class="st0" width="7.3" height="155.7"/>
<rect x="35.9" y="182.4" class="st0" width="7.3" height="155.7"/>
<rect x="52.3" y="182.4" class="st0" width="7.3" height="155.7"/>
<rect x="68.8" y="182.4" class="st0" width="7.3" height="155.7"/>
<rect x="85.2" y="182.4" class="st0" width="7.3" height="155.7"/>
<rect x="101.6" y="182.4" class="st0" width="7.3" height="155.7"/>
<rect x="118.1" y="182.4" class="st0" width="7.3" height="155.7"/>
<path class="st0" d="M141.8,182.4v155.2c-1.5,0.3-3.1,0.5-4.6,0.5h-2.6V182.4H141.8z"/>
<path class="st0" d="M158.2,338V187.9c-3,2-5.4,4.6-7.3,7.6V338H158.2z"/>
<rect x="-46.3" y="195.2" class="st0" width="7.3" height="142.9"/>
<rect x="-49.9" y="215.7" class="st0" width="211.8" height="124.3"/>
<circle class="st0" cx="-30.3" cy="143.9" r="91.7"/>
<circle class="st0" cx="140.8" cy="143.9" r="91.7"/>
<circle class="st0" cx="53.9" cy="142" r="91.7"/>
<circle class="st0" cx="99.5" cy="385.2" r="11.4"/>
<circle class="st0" cx="12.6" cy="385.2" r="11.4"/>
<path class="st0" d="M2.3,530.7c0,0,28.1,17.9,39,19.8c11.1,1.9,21.5,1.8,30,0s38.4-17.3,42.6-24.2c5.6-9.4-0.4-39.8-12.8-57.9
	S77.7,441.5,68.2,442s-9,2.6-13.9,2s-6.6-2.5-13.9-2s-24.5,3.9-39.6,40.8S2.3,530.7,2.3,530.7z"/>
<path class="st1" d="M13.7,487.6c-0.2,1.3-0.1,2.5,0.1,3.8c0.6,4,1.9,12.6,13.7,17.1c15.7,6,17.7,1.4,19.3,0s8.8-9.4,19.5-1.7
	c9.8,7.1,15.1,4.3,18.3,3c6.9-2.5,11.6-8.9,12.1-16.1c0,0,1.4-10.8-6-12.9c-6.4-1.9-27.2-6.4-31.2-8.5c-3.6-1.9-5.4-0.4-9.7,1.3
	c-4,1.6-25.6,5.5-32.2,8.9C15.5,483.4,14,485.3,13.7,487.6z"/>
</svg>
