<?xml version="1.0" encoding="utf-8"?>
<svg version="1.1" id="Layer_1" xmlns="http://www.w3.org/2000/svg" x="0" y="0" viewBox="-200 236 198 129" xml:space="preserve">
  <style>
    .st0{enable-background:new}.st1{fill:#fff}
  </style>
  <g class="st0">
    <path id="XMLID_2_" class="st1" d="M-188.5 283.8c3.7-5 8.3-8.9 13.7-11.7 5.4-2.8 11.2-4.2 17.3-4.2 7.2 0 13.2 1.8 17.9 5.5 4.8 3.7 7.7 8.8 8.6 15.3h-14.8c-1-2.9-2.7-5.2-5.1-6.7-2.4-1.5-5.3-2.3-8.8-2.3-3.7 0-7.2.9-10.4 2.6-3.2 1.7-5.9 4.2-8.1 7.4-2.2 3.2-3.6 6.9-4.4 11-.3 2-.5 3.6-.5 4.9 0 5 1.4 8.9 4.3 11.8 2.9 2.9 6.7 4.3 11.6 4.3 3.5 0 6.7-.8 9.7-2.3 2.9-1.5 5.4-3.8 7.5-6.7h14.8c-3.3 6.6-8 11.7-14 15.3-6 3.6-12.6 5.5-19.8 5.5-5.4 0-10.2-1.1-14.3-3.3-4.1-2.2-7.3-5.3-9.6-9.2-2.3-4-3.4-8.6-3.4-13.7 0-2.1.2-4.3.6-6.5 1-6.3 3.4-12 7.2-17z"/>
    <path id="XMLID_4_" class="st1" d="M-119.3 329.3c-4.1-2.9-6.2-7-6.2-12.3 0-.6.1-1.4.2-2.5h13.2c-.2 2.6.4 4.7 2.1 6.3 1.6 1.7 4 2.5 7.1 2.5 3.1 0 5.6-.7 7.4-2 1.8-1.3 2.7-3.2 2.7-5.7 0-2.3-.9-4.1-2.8-5.4-1.9-1.3-4.8-2.9-8.8-4.5-3.7-1.5-6.7-2.9-9-4.2-2.3-1.3-4.3-3.1-5.9-5.4-1.6-2.3-2.4-5.2-2.4-8.7 0-4 1-7.5 3.1-10.4 2.1-2.9 4.9-5.2 8.5-6.8 3.6-1.6 7.7-2.4 12.3-2.4 4.5 0 8.5.8 11.8 2.3 3.3 1.5 5.9 3.6 7.5 6.4 1.7 2.8 2.4 6 2.2 9.7H-90l.1-1c0-2-.8-3.7-2.3-5-1.5-1.3-3.6-1.9-6.3-1.9-2.9 0-5.2.7-7 2-1.8 1.3-2.7 3.2-2.7 5.5 0 1.5.5 2.9 1.5 4s2.3 2.1 3.7 2.9c1.5.8 3.6 1.9 6.3 3.2 3.6 1.6 6.6 3.1 8.9 4.5 2.3 1.4 4.3 3.3 6 5.6 1.7 2.3 2.5 5.2 2.5 8.6 0 3.7-1 7-3 9.8s-4.8 5.1-8.5 6.8c-3.7 1.6-7.9 2.4-12.7 2.4-6.3 0-11.6-1.4-15.8-4.3z"/>
    <path id="XMLID_6_" class="st1" d="M-61.7 283.8c3.7-5 8.3-8.9 13.8-11.7 5.5-2.8 11.3-4.2 17.4-4.2 7.2 0 13.2 1.8 17.9 5.3 4.7 3.5 7.5 8.5 8.5 14.9h-14.8c-1-2.7-2.6-4.8-5-6.2-2.3-1.4-5.2-2.1-8.6-2.1-3.8 0-7.3.9-10.6 2.6-3.3 1.7-6 4.2-8.2 7.4-2.2 3.2-3.7 6.9-4.4 11-.3 1.5-.5 3.2-.5 5.1 0 5 1.5 9 4.5 11.8 3 2.9 7.1 4.3 12.3 4.3 4.8 0 9.1-1.3 12.7-4 3.6-2.6 6.4-6.3 8.1-10.9h-22.1l1.7-9.8h34.8l-2 11.2c-1.7 4.5-4.2 8.6-7.7 12.4-3.5 3.8-7.7 6.9-12.5 9.2-4.8 2.3-10 3.5-15.5 3.5s-10.3-1.1-14.4-3.3c-4.1-2.2-7.4-5.3-9.7-9.2-2.3-4-3.5-8.5-3.5-13.8 0-2.1.2-4.2.6-6.4 1-6.4 3.4-12.1 7.2-17.1z"/>
  </g>
</svg>