<svg id="trello_icon" data-name="trello icon" xmlns="http://www.w3.org/2000/svg" width="121" height="121" viewBox="0 0 121 121">
  <g id="Group_1" data-name="Group 1">
    <path id="Path_8" data-name="Path 8" d="M105.875,0H15.125A15.131,15.131,0,0,0,0,15.125v90.75A15.131,15.131,0,0,0,15.125,121h90.75A15.131,15.131,0,0,0,121,105.875V15.125A15.126,15.126,0,0,0,105.875,0ZM52.938,90.75a7.565,7.565,0,0,1-7.562,7.563H22.688a7.565,7.565,0,0,1-7.562-7.562V22.688a7.56,7.56,0,0,1,7.563-7.562H45.375a7.56,7.56,0,0,1,7.563,7.563ZM105.875,60.5a7.565,7.565,0,0,1-7.562,7.563H75.625A7.565,7.565,0,0,1,68.063,60.5V22.688a7.56,7.56,0,0,1,7.563-7.562H98.313a7.56,7.56,0,0,1,7.563,7.563Z" fill="#fff"/>
  </g>
</svg>
