<svg data-name="trello icon" xmlns="http://www.w3.org/2000/svg" width="121" height="121">
  <g data-name="Group 1">
    <path data-name="Path 8" d="M105.875 0h-90.75A15.131 15.131 0 000 15.125v90.75A15.131 15.131 0 0015.125 121h90.75A15.131 15.131 0 00121 105.875v-90.75A15.126 15.126 0 00105.875 0zM52.938 90.75a7.565 7.565 0 01-7.562 7.563H22.688a7.565 7.565 0 01-7.562-7.562V22.688a7.56 7.56 0 017.563-7.562h22.686a7.56 7.56 0 017.563 7.563zm52.937-30.25a7.565 7.565 0 01-7.562 7.563H75.625a7.565 7.565 0 01-7.562-7.563V22.688a7.56 7.56 0 017.563-7.562h22.687a7.56 7.56 0 017.563 7.563z" fill="#fff"/>
  </g>
</svg>